<mxfile host="app.diagrams.net" modified="2024-06-18T02:16:31.963Z" agent="Mozilla/5.0 (Windows NT 10.0; Win64; x64) AppleWebKit/537.36 (KHTML, like Gecko) Chrome/125.0.0.0 Safari/537.36" etag="0jDL1ic0cENBv6ceCQZW" version="24.5.5" type="onedrive">
  <diagram name="Halaman-1" id="TVjQzb1hA2Tu5HhLFDb0">
    <mxGraphModel grid="1" page="1" gridSize="10" guides="1" tooltips="1" connect="1" arrows="1" fold="1" pageScale="1" pageWidth="827" pageHeight="1169" math="0" shadow="0">
      <root>
        <mxCell id="0" />
        <mxCell id="1" parent="0" />
        <mxCell id="Xy152Z3lAqqGKj89Kggo-3" value="" style="edgeStyle=orthogonalEdgeStyle;rounded=0;orthogonalLoop=1;jettySize=auto;html=1;" edge="1" parent="1" source="Xy152Z3lAqqGKj89Kggo-1" target="Xy152Z3lAqqGKj89Kggo-2">
          <mxGeometry relative="1" as="geometry" />
        </mxCell>
        <mxCell id="Xy152Z3lAqqGKj89Kggo-1" value="mulai" style="ellipse;whiteSpace=wrap;html=1;" vertex="1" parent="1">
          <mxGeometry x="105" y="120" width="40" height="30" as="geometry" />
        </mxCell>
        <mxCell id="Xy152Z3lAqqGKj89Kggo-5" value="" style="edgeStyle=orthogonalEdgeStyle;rounded=0;orthogonalLoop=1;jettySize=auto;html=1;" edge="1" parent="1" source="Xy152Z3lAqqGKj89Kggo-2" target="Xy152Z3lAqqGKj89Kggo-4">
          <mxGeometry relative="1" as="geometry" />
        </mxCell>
        <mxCell id="Xy152Z3lAqqGKj89Kggo-2" value="inisialisasi variabel global:&lt;div&gt;`size_data_pasien`, `size_riwayat_medis_pasien`, `data_pasien`, `riwayat_medis_pasien`&lt;/div&gt;" style="rounded=1;whiteSpace=wrap;html=1;" vertex="1" parent="1">
          <mxGeometry x="40" y="200" width="170" height="80" as="geometry" />
        </mxCell>
        <mxCell id="Xy152Z3lAqqGKj89Kggo-7" value="" style="edgeStyle=orthogonalEdgeStyle;rounded=0;orthogonalLoop=1;jettySize=auto;html=1;" edge="1" parent="1" source="Xy152Z3lAqqGKj89Kggo-4" target="Xy152Z3lAqqGKj89Kggo-6">
          <mxGeometry relative="1" as="geometry" />
        </mxCell>
        <mxCell id="Xy152Z3lAqqGKj89Kggo-4" value="baca data pasien dari file &quot;Data Pasien.csv&quot; dan simpan dalam `data_pasien`" style="rounded=1;whiteSpace=wrap;html=1;" vertex="1" parent="1">
          <mxGeometry x="60" y="320" width="130" height="70" as="geometry" />
        </mxCell>
        <mxCell id="Xy152Z3lAqqGKj89Kggo-9" value="" style="edgeStyle=orthogonalEdgeStyle;rounded=0;orthogonalLoop=1;jettySize=auto;html=1;" edge="1" parent="1" source="Xy152Z3lAqqGKj89Kggo-6">
          <mxGeometry relative="1" as="geometry">
            <mxPoint x="125" y="580" as="targetPoint" />
          </mxGeometry>
        </mxCell>
        <mxCell id="Xy152Z3lAqqGKj89Kggo-6" value="baca data pasien dari file &quot;Riwayat Datang, Diagnosis, dan Tindakan.csv&quot; dan simpan dalam `riwayat_medis_pasien`" style="rounded=1;whiteSpace=wrap;html=1;" vertex="1" parent="1">
          <mxGeometry x="60" y="440" width="130" height="100" as="geometry" />
        </mxCell>
        <mxCell id="Xy152Z3lAqqGKj89Kggo-12" value="A" style="ellipse;whiteSpace=wrap;html=1;aspect=fixed;" vertex="1" parent="1">
          <mxGeometry x="105" y="580" width="40" height="40" as="geometry" />
        </mxCell>
        <mxCell id="Xy152Z3lAqqGKj89Kggo-32" value="" style="edgeStyle=orthogonalEdgeStyle;rounded=0;orthogonalLoop=1;jettySize=auto;html=1;" edge="1" parent="1" source="Xy152Z3lAqqGKj89Kggo-13" target="Xy152Z3lAqqGKj89Kggo-30">
          <mxGeometry relative="1" as="geometry" />
        </mxCell>
        <mxCell id="Xy152Z3lAqqGKj89Kggo-13" value="A" style="ellipse;whiteSpace=wrap;html=1;aspect=fixed;" vertex="1" parent="1">
          <mxGeometry x="285" y="40" width="40" height="40" as="geometry" />
        </mxCell>
        <mxCell id="Xy152Z3lAqqGKj89Kggo-35" value="" style="edgeStyle=orthogonalEdgeStyle;rounded=0;orthogonalLoop=1;jettySize=auto;html=1;" edge="1" parent="1" source="Xy152Z3lAqqGKj89Kggo-14" target="Xy152Z3lAqqGKj89Kggo-34">
          <mxGeometry relative="1" as="geometry" />
        </mxCell>
        <mxCell id="Xy152Z3lAqqGKj89Kggo-14" value="sambungkan sinyal `activate` dengan fungsi `activate`" style="rounded=1;whiteSpace=wrap;html=1;" vertex="1" parent="1">
          <mxGeometry x="245" y="220" width="120" height="60" as="geometry" />
        </mxCell>
        <mxCell id="Xy152Z3lAqqGKj89Kggo-19" value="" style="edgeStyle=orthogonalEdgeStyle;rounded=0;orthogonalLoop=1;jettySize=auto;html=1;" edge="1" parent="1" source="Xy152Z3lAqqGKj89Kggo-16" target="Xy152Z3lAqqGKj89Kggo-18">
          <mxGeometry relative="1" as="geometry" />
        </mxCell>
        <mxCell id="Xy152Z3lAqqGKj89Kggo-16" value="jalankan aplikasi GTK" style="rounded=1;whiteSpace=wrap;html=1;" vertex="1" parent="1">
          <mxGeometry x="240" y="400" width="130" height="30" as="geometry" />
        </mxCell>
        <mxCell id="Xy152Z3lAqqGKj89Kggo-38" value="" style="edgeStyle=orthogonalEdgeStyle;rounded=0;orthogonalLoop=1;jettySize=auto;html=1;" edge="1" parent="1" source="Xy152Z3lAqqGKj89Kggo-18" target="Xy152Z3lAqqGKj89Kggo-37">
          <mxGeometry relative="1" as="geometry" />
        </mxCell>
        <mxCell id="Xy152Z3lAqqGKj89Kggo-18" value="ambil input dari elemen imput" style="rounded=1;whiteSpace=wrap;html=1;" vertex="1" parent="1">
          <mxGeometry x="245" y="480" width="120" height="60" as="geometry" />
        </mxCell>
        <mxCell id="Xy152Z3lAqqGKj89Kggo-23" value="" style="edgeStyle=orthogonalEdgeStyle;rounded=0;orthogonalLoop=1;jettySize=auto;html=1;" edge="1" parent="1" source="Xy152Z3lAqqGKj89Kggo-20" target="Xy152Z3lAqqGKj89Kggo-22">
          <mxGeometry relative="1" as="geometry" />
        </mxCell>
        <mxCell id="Xy152Z3lAqqGKj89Kggo-20" value="panggil fungsi dari file&amp;nbsp;&lt;span style=&quot;white-space: pre;&quot;&gt;&#x9;&lt;/span&gt;`my_functions.h`" style="rounded=1;whiteSpace=wrap;html=1;" vertex="1" parent="1">
          <mxGeometry x="400" y="120" width="120" height="60" as="geometry" />
        </mxCell>
        <mxCell id="Xy152Z3lAqqGKj89Kggo-26" value="" style="edgeStyle=orthogonalEdgeStyle;rounded=0;orthogonalLoop=1;jettySize=auto;html=1;" edge="1" parent="1" source="Xy152Z3lAqqGKj89Kggo-22" target="Xy152Z3lAqqGKj89Kggo-25">
          <mxGeometry relative="1" as="geometry" />
        </mxCell>
        <mxCell id="Xy152Z3lAqqGKj89Kggo-22" value="tampilkan hasil pada label" style="rounded=1;whiteSpace=wrap;html=1;" vertex="1" parent="1">
          <mxGeometry x="400" y="220" width="120" height="60" as="geometry" />
        </mxCell>
        <mxCell id="Xy152Z3lAqqGKj89Kggo-25" value="selesai" style="ellipse;whiteSpace=wrap;html=1;" vertex="1" parent="1">
          <mxGeometry x="435" y="320" width="50" height="40" as="geometry" />
        </mxCell>
        <mxCell id="Xy152Z3lAqqGKj89Kggo-29" value="" style="edgeStyle=orthogonalEdgeStyle;rounded=0;orthogonalLoop=1;jettySize=auto;html=1;" edge="1" parent="1" source="Xy152Z3lAqqGKj89Kggo-27" target="Xy152Z3lAqqGKj89Kggo-1">
          <mxGeometry relative="1" as="geometry" />
        </mxCell>
        <mxCell id="Xy152Z3lAqqGKj89Kggo-27" value="main" style="ellipse;whiteSpace=wrap;html=1;" vertex="1" parent="1">
          <mxGeometry x="90" y="40" width="70" height="40" as="geometry" />
        </mxCell>
        <mxCell id="Xy152Z3lAqqGKj89Kggo-33" value="" style="edgeStyle=orthogonalEdgeStyle;rounded=0;orthogonalLoop=1;jettySize=auto;html=1;" edge="1" parent="1" source="Xy152Z3lAqqGKj89Kggo-30" target="Xy152Z3lAqqGKj89Kggo-14">
          <mxGeometry relative="1" as="geometry" />
        </mxCell>
        <mxCell id="Xy152Z3lAqqGKj89Kggo-30" value="buat objek aplikasi GTK" style="rounded=1;whiteSpace=wrap;html=1;" vertex="1" parent="1">
          <mxGeometry x="245" y="120" width="120" height="60" as="geometry" />
        </mxCell>
        <mxCell id="Xy152Z3lAqqGKj89Kggo-36" value="" style="edgeStyle=orthogonalEdgeStyle;rounded=0;orthogonalLoop=1;jettySize=auto;html=1;" edge="1" parent="1" source="Xy152Z3lAqqGKj89Kggo-34" target="Xy152Z3lAqqGKj89Kggo-16">
          <mxGeometry relative="1" as="geometry" />
        </mxCell>
        <mxCell id="Xy152Z3lAqqGKj89Kggo-34" value="activate" style="shape=process;whiteSpace=wrap;html=1;backgroundOutline=1;" vertex="1" parent="1">
          <mxGeometry x="272.5" y="320" width="65" height="30" as="geometry" />
        </mxCell>
        <mxCell id="Xy152Z3lAqqGKj89Kggo-37" value="B" style="ellipse;whiteSpace=wrap;html=1;aspect=fixed;" vertex="1" parent="1">
          <mxGeometry x="285" y="580" width="40" height="40" as="geometry" />
        </mxCell>
        <mxCell id="Xy152Z3lAqqGKj89Kggo-40" value="" style="edgeStyle=orthogonalEdgeStyle;rounded=0;orthogonalLoop=1;jettySize=auto;html=1;" edge="1" parent="1" source="Xy152Z3lAqqGKj89Kggo-39" target="Xy152Z3lAqqGKj89Kggo-20">
          <mxGeometry relative="1" as="geometry" />
        </mxCell>
        <mxCell id="Xy152Z3lAqqGKj89Kggo-39" value="B" style="ellipse;whiteSpace=wrap;html=1;aspect=fixed;" vertex="1" parent="1">
          <mxGeometry x="440" y="40" width="40" height="40" as="geometry" />
        </mxCell>
        <mxCell id="Xy152Z3lAqqGKj89Kggo-43" value="" style="edgeStyle=orthogonalEdgeStyle;rounded=0;orthogonalLoop=1;jettySize=auto;html=1;" edge="1" parent="1" source="Xy152Z3lAqqGKj89Kggo-41" target="Xy152Z3lAqqGKj89Kggo-42">
          <mxGeometry relative="1" as="geometry" />
        </mxCell>
        <mxCell id="Xy152Z3lAqqGKj89Kggo-41" value="activate" style="ellipse;whiteSpace=wrap;html=1;" vertex="1" parent="1">
          <mxGeometry x="430" y="400" width="60" height="40" as="geometry" />
        </mxCell>
        <mxCell id="Xy152Z3lAqqGKj89Kggo-45" value="" style="edgeStyle=orthogonalEdgeStyle;rounded=0;orthogonalLoop=1;jettySize=auto;html=1;entryX=0.5;entryY=0;entryDx=0;entryDy=0;" edge="1" parent="1" source="Xy152Z3lAqqGKj89Kggo-42" target="Xy152Z3lAqqGKj89Kggo-46">
          <mxGeometry relative="1" as="geometry">
            <mxPoint x="460" y="555" as="targetPoint" />
          </mxGeometry>
        </mxCell>
        <mxCell id="Xy152Z3lAqqGKj89Kggo-42" value="buat jendela utama" style="rounded=1;whiteSpace=wrap;html=1;" vertex="1" parent="1">
          <mxGeometry x="400" y="480" width="120" height="30" as="geometry" />
        </mxCell>
        <mxCell id="Xy152Z3lAqqGKj89Kggo-46" value="C" style="ellipse;whiteSpace=wrap;html=1;aspect=fixed;" vertex="1" parent="1">
          <mxGeometry x="440" y="580" width="40" height="40" as="geometry" />
        </mxCell>
        <mxCell id="Xy152Z3lAqqGKj89Kggo-49" value="" style="edgeStyle=orthogonalEdgeStyle;rounded=0;orthogonalLoop=1;jettySize=auto;html=1;" edge="1" parent="1" source="Xy152Z3lAqqGKj89Kggo-47" target="Xy152Z3lAqqGKj89Kggo-48">
          <mxGeometry relative="1" as="geometry" />
        </mxCell>
        <mxCell id="Xy152Z3lAqqGKj89Kggo-47" value="C" style="ellipse;whiteSpace=wrap;html=1;aspect=fixed;" vertex="1" parent="1">
          <mxGeometry x="600" y="40" width="40" height="40" as="geometry" />
        </mxCell>
        <mxCell id="Xy152Z3lAqqGKj89Kggo-51" value="" style="edgeStyle=orthogonalEdgeStyle;rounded=0;orthogonalLoop=1;jettySize=auto;html=1;" edge="1" parent="1" source="Xy152Z3lAqqGKj89Kggo-48" target="Xy152Z3lAqqGKj89Kggo-50">
          <mxGeometry relative="1" as="geometry" />
        </mxCell>
        <mxCell id="Xy152Z3lAqqGKj89Kggo-48" value="buat stack (container utama)" style="rounded=1;whiteSpace=wrap;html=1;" vertex="1" parent="1">
          <mxGeometry x="560" y="120" width="120" height="45" as="geometry" />
        </mxCell>
        <mxCell id="Xy152Z3lAqqGKj89Kggo-53" value="" style="edgeStyle=orthogonalEdgeStyle;rounded=0;orthogonalLoop=1;jettySize=auto;html=1;" edge="1" parent="1" source="Xy152Z3lAqqGKj89Kggo-50" target="Xy152Z3lAqqGKj89Kggo-52">
          <mxGeometry relative="1" as="geometry" />
        </mxCell>
        <mxCell id="Xy152Z3lAqqGKj89Kggo-50" value="buat box sebagai menu utama" style="rounded=1;whiteSpace=wrap;html=1;" vertex="1" parent="1">
          <mxGeometry x="560" y="200" width="120" height="40" as="geometry" />
        </mxCell>
        <mxCell id="Xy152Z3lAqqGKj89Kggo-55" value="" style="edgeStyle=orthogonalEdgeStyle;rounded=0;orthogonalLoop=1;jettySize=auto;html=1;" edge="1" parent="1" source="Xy152Z3lAqqGKj89Kggo-52" target="Xy152Z3lAqqGKj89Kggo-54">
          <mxGeometry relative="1" as="geometry" />
        </mxCell>
        <mxCell id="Xy152Z3lAqqGKj89Kggo-52" value="tambahkan judul, subjudul, dan tombol-tombol pada box menu utama" style="rounded=1;whiteSpace=wrap;html=1;" vertex="1" parent="1">
          <mxGeometry x="560" y="280" width="120" height="60" as="geometry" />
        </mxCell>
        <mxCell id="Xy152Z3lAqqGKj89Kggo-57" value="" style="edgeStyle=orthogonalEdgeStyle;rounded=0;orthogonalLoop=1;jettySize=auto;html=1;" edge="1" parent="1" source="Xy152Z3lAqqGKj89Kggo-54" target="Xy152Z3lAqqGKj89Kggo-56">
          <mxGeometry relative="1" as="geometry" />
        </mxCell>
        <mxCell id="Xy152Z3lAqqGKj89Kggo-54" value="tambahkan box menu utama ke dalam stack" style="rounded=1;whiteSpace=wrap;html=1;" vertex="1" parent="1">
          <mxGeometry x="560" y="380" width="120" height="60" as="geometry" />
        </mxCell>
        <mxCell id="Xy152Z3lAqqGKj89Kggo-59" value="" style="edgeStyle=orthogonalEdgeStyle;rounded=0;orthogonalLoop=1;jettySize=auto;html=1;" edge="1" parent="1" source="Xy152Z3lAqqGKj89Kggo-56" target="Xy152Z3lAqqGKj89Kggo-58">
          <mxGeometry relative="1" as="geometry" />
        </mxCell>
        <mxCell id="Xy152Z3lAqqGKj89Kggo-56" value="buat box untuk setiap fitur (tambah data pasien, ubah data pasien, dll.)" style="rounded=1;whiteSpace=wrap;html=1;" vertex="1" parent="1">
          <mxGeometry x="560" y="480" width="120" height="60" as="geometry" />
        </mxCell>
        <mxCell id="Xy152Z3lAqqGKj89Kggo-58" value="D" style="ellipse;whiteSpace=wrap;html=1;aspect=fixed;" vertex="1" parent="1">
          <mxGeometry x="600" y="580" width="40" height="40" as="geometry" />
        </mxCell>
        <mxCell id="Xy152Z3lAqqGKj89Kggo-62" value="" style="edgeStyle=orthogonalEdgeStyle;rounded=0;orthogonalLoop=1;jettySize=auto;html=1;" edge="1" parent="1" source="Xy152Z3lAqqGKj89Kggo-60" target="Xy152Z3lAqqGKj89Kggo-61">
          <mxGeometry relative="1" as="geometry" />
        </mxCell>
        <mxCell id="Xy152Z3lAqqGKj89Kggo-60" value="D" style="ellipse;whiteSpace=wrap;html=1;aspect=fixed;" vertex="1" parent="1">
          <mxGeometry x="760" y="40" width="40" height="40" as="geometry" />
        </mxCell>
        <mxCell id="Xy152Z3lAqqGKj89Kggo-64" value="" style="edgeStyle=orthogonalEdgeStyle;rounded=0;orthogonalLoop=1;jettySize=auto;html=1;" edge="1" parent="1" source="Xy152Z3lAqqGKj89Kggo-61" target="Xy152Z3lAqqGKj89Kggo-63">
          <mxGeometry relative="1" as="geometry" />
        </mxCell>
        <mxCell id="Xy152Z3lAqqGKj89Kggo-61" value="untuk setiap box:&lt;div&gt;1. tambahkan judul fitur&lt;/div&gt;&lt;div&gt;2. tambahkan elemen input (entri, label, dll.)&lt;/div&gt;&lt;div&gt;3. sambungkan sinyal tombol dengan fungsi yang sesuai&lt;/div&gt;&lt;div&gt;4. tambahkan hasil ke dalam label&lt;/div&gt;&lt;div&gt;5. tambahkan tombol kembali ke menu utama&lt;/div&gt;&lt;div&gt;6. sambungkan sinyal tombol kembali dengan fungsi `press`&lt;/div&gt;&lt;div&gt;7. tambahkan box fitur ke dalam stack&lt;/div&gt;" style="rounded=1;whiteSpace=wrap;html=1;" vertex="1" parent="1">
          <mxGeometry x="720" y="120" width="120" height="270" as="geometry" />
        </mxCell>
        <mxCell id="Xy152Z3lAqqGKj89Kggo-66" value="" style="edgeStyle=orthogonalEdgeStyle;rounded=0;orthogonalLoop=1;jettySize=auto;html=1;" edge="1" parent="1" source="Xy152Z3lAqqGKj89Kggo-63" target="Xy152Z3lAqqGKj89Kggo-65">
          <mxGeometry relative="1" as="geometry" />
        </mxCell>
        <mxCell id="Xy152Z3lAqqGKj89Kggo-63" value="press" style="shape=process;whiteSpace=wrap;html=1;backgroundOutline=1;" vertex="1" parent="1">
          <mxGeometry x="750" y="440" width="60" height="30" as="geometry" />
        </mxCell>
        <mxCell id="Xy152Z3lAqqGKj89Kggo-68" value="" style="edgeStyle=orthogonalEdgeStyle;rounded=0;orthogonalLoop=1;jettySize=auto;html=1;" edge="1" parent="1" source="Xy152Z3lAqqGKj89Kggo-65" target="Xy152Z3lAqqGKj89Kggo-67">
          <mxGeometry relative="1" as="geometry" />
        </mxCell>
        <mxCell id="Xy152Z3lAqqGKj89Kggo-65" value="tampilkan jendela utama" style="rounded=1;whiteSpace=wrap;html=1;" vertex="1" parent="1">
          <mxGeometry x="720" y="510" width="120" height="40" as="geometry" />
        </mxCell>
        <mxCell id="Xy152Z3lAqqGKj89Kggo-67" value="selesai" style="ellipse;whiteSpace=wrap;html=1;" vertex="1" parent="1">
          <mxGeometry x="750" y="580" width="60" height="40" as="geometry" />
        </mxCell>
        <mxCell id="Xy152Z3lAqqGKj89Kggo-73" value="" style="edgeStyle=orthogonalEdgeStyle;rounded=0;orthogonalLoop=1;jettySize=auto;html=1;" edge="1" parent="1" source="Xy152Z3lAqqGKj89Kggo-70" target="Xy152Z3lAqqGKj89Kggo-72">
          <mxGeometry relative="1" as="geometry" />
        </mxCell>
        <mxCell id="Xy152Z3lAqqGKj89Kggo-70" value="press" style="ellipse;whiteSpace=wrap;html=1;" vertex="1" parent="1">
          <mxGeometry x="85" y="680" width="80" height="40" as="geometry" />
        </mxCell>
        <mxCell id="Xy152Z3lAqqGKj89Kggo-75" value="" style="edgeStyle=orthogonalEdgeStyle;rounded=0;orthogonalLoop=1;jettySize=auto;html=1;" edge="1" parent="1" source="Xy152Z3lAqqGKj89Kggo-72" target="Xy152Z3lAqqGKj89Kggo-74">
          <mxGeometry relative="1" as="geometry" />
        </mxCell>
        <mxCell id="Xy152Z3lAqqGKj89Kggo-72" value="mulai" style="ellipse;whiteSpace=wrap;html=1;" vertex="1" parent="1">
          <mxGeometry x="85" y="760" width="80" height="40" as="geometry" />
        </mxCell>
        <mxCell id="Xy152Z3lAqqGKj89Kggo-77" value="" style="edgeStyle=orthogonalEdgeStyle;rounded=0;orthogonalLoop=1;jettySize=auto;html=1;" edge="1" parent="1" source="Xy152Z3lAqqGKj89Kggo-74" target="Xy152Z3lAqqGKj89Kggo-76">
          <mxGeometry relative="1" as="geometry" />
        </mxCell>
        <mxCell id="Xy152Z3lAqqGKj89Kggo-74" value="ambil data parameter (`stack` dan `child`)" style="rounded=1;whiteSpace=wrap;html=1;" vertex="1" parent="1">
          <mxGeometry x="65" y="840" width="120" height="40" as="geometry" />
        </mxCell>
        <mxCell id="Xy152Z3lAqqGKj89Kggo-79" value="" style="edgeStyle=orthogonalEdgeStyle;rounded=0;orthogonalLoop=1;jettySize=auto;html=1;" edge="1" parent="1" source="Xy152Z3lAqqGKj89Kggo-76" target="Xy152Z3lAqqGKj89Kggo-78">
          <mxGeometry relative="1" as="geometry" />
        </mxCell>
        <mxCell id="Xy152Z3lAqqGKj89Kggo-76" value="atur `child` sebagai anak yang terlihat di `stack`" style="rounded=1;whiteSpace=wrap;html=1;" vertex="1" parent="1">
          <mxGeometry x="65" y="920" width="120" height="60" as="geometry" />
        </mxCell>
        <mxCell id="Xy152Z3lAqqGKj89Kggo-78" value="selesai" style="ellipse;whiteSpace=wrap;html=1;" vertex="1" parent="1">
          <mxGeometry x="85" y="1020" width="80" height="40" as="geometry" />
        </mxCell>
        <mxCell id="Xy152Z3lAqqGKj89Kggo-82" value="ubah_data_pasien" style="shape=process;whiteSpace=wrap;html=1;backgroundOutline=1;" vertex="1" parent="1">
          <mxGeometry x="232.5" y="780" width="120" height="60" as="geometry" />
        </mxCell>
        <mxCell id="Xy152Z3lAqqGKj89Kggo-83" value="cari_data_pasien" style="shape=process;whiteSpace=wrap;html=1;backgroundOutline=1;" vertex="1" parent="1">
          <mxGeometry x="232.5" y="880" width="120" height="60" as="geometry" />
        </mxCell>
        <mxCell id="Xy152Z3lAqqGKj89Kggo-84" value="tambah_data_pasien" style="shape=process;whiteSpace=wrap;html=1;backgroundOutline=1;" vertex="1" parent="1">
          <mxGeometry x="232.5" y="680" width="120" height="60" as="geometry" />
        </mxCell>
        <mxCell id="Xy152Z3lAqqGKj89Kggo-85" value="hapus_data_pasien" style="shape=process;whiteSpace=wrap;html=1;backgroundOutline=1;" vertex="1" parent="1">
          <mxGeometry x="232.5" y="980" width="120" height="60" as="geometry" />
        </mxCell>
        <mxCell id="Xy152Z3lAqqGKj89Kggo-87" value="tambah_riwayat&lt;div&gt;_medis_pasien&lt;/div&gt;" style="shape=process;whiteSpace=wrap;html=1;backgroundOutline=1;" vertex="1" parent="1">
          <mxGeometry x="400" y="680" width="120" height="60" as="geometry" />
        </mxCell>
        <mxCell id="Xy152Z3lAqqGKj89Kggo-88" value="ubah_riwayat&lt;div&gt;_medis_pasien&lt;/div&gt;" style="shape=process;whiteSpace=wrap;html=1;backgroundOutline=1;" vertex="1" parent="1">
          <mxGeometry x="400" y="780" width="120" height="60" as="geometry" />
        </mxCell>
        <mxCell id="Xy152Z3lAqqGKj89Kggo-89" value="cari_riwayat&lt;div&gt;_medis_pasien&lt;/div&gt;" style="shape=process;whiteSpace=wrap;html=1;backgroundOutline=1;" vertex="1" parent="1">
          <mxGeometry x="400" y="880" width="120" height="60" as="geometry" />
        </mxCell>
        <mxCell id="Xy152Z3lAqqGKj89Kggo-90" value="hapus_riwayat&lt;div&gt;_medis_pasien&lt;/div&gt;" style="shape=process;whiteSpace=wrap;html=1;backgroundOutline=1;" vertex="1" parent="1">
          <mxGeometry x="400" y="980" width="120" height="60" as="geometry" />
        </mxCell>
        <mxCell id="Xy152Z3lAqqGKj89Kggo-91" value="informasi_kontrol&lt;div&gt;_pasien&lt;/div&gt;" style="shape=process;whiteSpace=wrap;html=1;backgroundOutline=1;" vertex="1" parent="1">
          <mxGeometry x="560" y="680" width="120" height="60" as="geometry" />
        </mxCell>
      </root>
    </mxGraphModel>
  </diagram>
</mxfile>
